<?xml version="1.0" encoding="UTF-8"?>
<svg width="60px" height="60px" viewBox="0 0 60 60" version="1.1" xmlns="http://www.w3.org/2000/svg" xmlns:xlink="http://www.w3.org/1999/xlink">
    <!-- Generator: Sketch 58 (84663) - https://sketch.com -->
    <title>paidui</title>
    <desc>Created with Sketch.</desc>
    <g id="icon" stroke="none" stroke-width="1" fill="none" fill-rule="evenodd">
        <g id="other-icons" transform="translate(-100.000000, -200.000000)" fill="#1890ff" fill-rule="nonzero">
            <g id="paidui" transform="translate(100.000000, 200.000000)">
                <path d="M50,5 C50.8284271,5 51.5,5.67157288 51.5,6.5 C51.5,7.27969612 50.9051119,7.92044868 50.14446,7.99313342 L50,8 L47.211,8 L46.5053357,11.2916597 C45.393132,16.4731864 42.9603619,21.2792145 39.4431196,25.2433313 L36.7023131,28.3323641 C35.8603572,29.2812926 35.8626038,30.7103943 36.7075389,31.656671 L39.4399841,34.7168457 C42.9583329,38.6571854 45.388528,43.4467737 46.4907805,48.6130194 L47.213,52 L50,52 C50.7796961,52 51.4204487,52.5948881 51.4931334,53.35554 L51.5,53.5 C51.5,54.2796961 50.9051119,54.9204487 50.14446,54.9931334 L50,55 L10,55 C9.17157288,55 8.5,54.3284271 8.5,53.5 C8.5,52.7203039 9.09488808,52.0795513 9.85553999,52.0068666 L10,52 L12.786,52 L13.5089086,48.6130194 C14.571795,43.6312825 16.8694646,38.9997792 20.1869139,35.1422531 L20.559705,34.7168457 L23.2921502,31.656671 C24.0948386,30.7577081 24.1370005,29.4229957 23.4173381,28.4781843 L23.297376,28.3323641 L20.5565696,25.2433313 C17.164943,21.4207901 14.7817097,16.8154003 13.6185605,11.8453652 L13.4943534,11.2916597 L12.788,8 L10,8 C9.22030388,8 8.57955132,7.40511192 8.50686658,6.64446001 L8.5,6.5 C8.5,5.72030388 9.09488808,5.07955132 9.85553999,5.00686658 L10,5 L50,5 Z M44.143,8 L15.856,8 L16.4275428,10.6620568 C17.3940404,15.1647687 19.4655989,19.3532602 22.4519701,22.8516888 L22.8006004,23.2522698 L25.5414068,26.3413026 C27.3375794,28.3656834 27.3873615,31.3833922 25.6937898,33.4626552 L25.52991,33.6547778 L22.7974649,36.7149525 C19.7439647,40.1346896 17.5998728,44.2641736 16.5581668,48.7230716 L16.4428732,49.2390001 L15.853,52 L44.145,52 L43.5568159,49.2390001 C42.5634012,44.5828762 40.3731668,40.266218 37.2022243,36.7149525 L34.4697791,33.6547778 C32.6109217,31.5729691 32.6059793,28.4289453 34.4582823,26.3413026 L37.1990888,23.2522698 C40.3731049,19.674987 42.5684758,15.3379499 43.5721463,10.6620568 L44.143,8 Z M35,44.5042746 C35.8284271,44.5042746 36.5,45.1758475 36.5,46.0042746 C36.5,46.8327017 35.8284271,47.5042746 35,47.5042746 L35,47.5042746 L25,47.5042746 C24.1715729,47.5042746 23.5,46.8327017 23.5,46.0042746 C23.5,45.1758475 24.1715729,44.5042746 25,44.5042746 L25,44.5042746 Z" id="形状结合"></path>
            </g>
        </g>
    </g>
</svg>